<svg width="512" height="512" viewBox="0 0 512 512" fill="none" xmlns="http://www.w3.org/2000/svg">
  <defs>
    <linearGradient id="techNeonGradient" x1="0%" y1="0%" x2="100%" y2="100%">
      <stop offset="0%" style="stop-color:#3B82F6;stop-opacity:1" />
      <stop offset="50%" style="stop-color:#8B5CF6;stop-opacity:1" />
      <stop offset="100%" style="stop-color:#A855F7;stop-opacity:1" />
    </linearGradient>
    <filter id="glow">
      <feGaussianBlur stdDeviation="6" result="coloredBlur"/>
      <feMerge>
        <feMergeNode in="coloredBlur"/>
        <feMergeNode in="SourceGraphic"/>
      </feMerge>
    </filter>
  </defs>
  
  <!-- Icon: Stylized S with 3D depth -->
  <g transform="translate(106, 106)">
    <!-- Shadow layer for depth -->
    <path d="M 200 50 Q 280 50 280 150 Q 280 200 250 225 Q 280 250 280 300 Q 280 400 200 400 L 100 400 L 100 350 L 200 350 Q 250 350 250 300 Q 250 275 225 262.5 L 175 262.5 L 175 212.5 L 225 212.5 Q 250 200 250 150 Q 250 100 200 100 L 100 100 L 100 50 Z" fill="url(#techNeonGradient)" opacity="0.3" transform="translate(8, 8)"/>
    
    <!-- Main S shape -->
    <path d="M 200 50 Q 280 50 280 150 Q 280 200 250 225 Q 280 250 280 300 Q 280 400 200 400 L 100 400 L 100 350 L 200 350 Q 250 350 250 300 Q 250 275 225 262.5 L 175 262.5 L 175 212.5 L 225 212.5 Q 250 200 250 150 Q 250 100 200 100 L 100 100 L 100 50 Z" fill="url(#techNeonGradient)" filter="url(#glow)"/>
    
    <!-- Highlight for 3D effect -->
    <path d="M 200 60 Q 270 60 270 150 Q 270 190 250 210 L 235 210 Q 260 195 260 150 Q 260 85 200 85 L 115 85 L 115 60 Z" fill="white" opacity="0.3"/>
  </g>
</svg>
