<svg width="1200" height="400" viewBox="0 0 1200 400" fill="none" xmlns="http://www.w3.org/2000/svg">
  <defs>
    <linearGradient id="techGradient" x1="0%" y1="0%" x2="100%" y2="100%">
      <stop offset="0%" style="stop-color:oklch(0.65 0.25 250);stop-opacity:1" />
      <stop offset="50%" style="stop-color:oklch(0.60 0.28 280);stop-opacity:1" />
      <stop offset="100%" style="stop-color:oklch(0.55 0.22 310);stop-opacity:1" />
    </linearGradient>
    <filter id="subtleGlow" x="-50%" y="-50%" width="200%" height="200%">
      <feGaussianBlur in="SourceGraphic" stdDeviation="3" result="blur" />
      <feColorMatrix in="blur" type="matrix" values="1 0 0 0 0  0 1 0 0 0  0 0 1 0 0  0 0 0 0.6 0" result="glow" />
      <feMerge>
        <feMergeNode in="glow" />
        <feMergeNode in="SourceGraphic" />
      </feMerge>
    </filter>
  </defs>
  
  <!-- Icon Mark -->
  <g filter="url(#subtleGlow)">
    <!-- Outer hexagon -->
    <path d="M 100 80 L 160 50 L 220 80 L 220 140 L 160 170 L 100 140 Z" 
          fill="url(#techGradient)" 
          stroke="url(#techGradient)" 
          stroke-width="2" 
          opacity="0.9" />
    
    <!-- Inner S shape -->
    <path d="M 130 90 Q 145 85 160 90 Q 175 95 175 110 Q 175 120 160 125 Q 145 130 145 140 Q 145 150 160 155 Q 175 160 190 155" 
          fill="none" 
          stroke="white" 
          stroke-width="8" 
          stroke-linecap="round" 
          opacity="0.95" />
    
    <!-- Tech accent lines -->
    <line x1="110" y1="100" x2="125" y2="95" stroke="white" stroke-width="2" opacity="0.7" />
    <line x1="195" y1="125" x2="210" y2="120" stroke="white" stroke-width="2" opacity="0.7" />
  </g>
  
  <!-- STYO Text -->
  <g filter="url(#subtleGlow)">
    <text x="280" y="160" font-family="Arial, sans-serif" font-size="120" font-weight="900" fill="url(#techGradient)" letter-spacing="8">STYO</text>
    <text x="280" y="160" font-family="Arial, sans-serif" font-size="120" font-weight="900" fill="white" opacity="0.15" letter-spacing="8">STYO</text>
  </g>
  
  <!-- Tagline -->
  <text x="280" y="220" font-family="Arial, sans-serif" font-size="32" font-weight="400" fill="white" opacity="0.7" letter-spacing="4">All Stays. One Place.</text>
</svg>
